<?xml version="1.0" standalone="no"?><!DOCTYPE svg PUBLIC "-//W3C//DTD SVG 1.1//EN" "http://www.w3.org/Graphics/SVG/1.1/DTD/svg11.dtd"><svg t="1596178630217" class="icon" viewBox="0 0 1024 1024" version="1.1" xmlns="http://www.w3.org/2000/svg" p-id="1992" xmlns:xlink="http://www.w3.org/1999/xlink" width="16" height="16"><defs><style type="text/css"></style></defs><path d="M483.60448 435.34336A169.61536 169.61536 0 0 0 512 341.34016c0-94.26944-76.40064-170.67008-170.67008-170.67008-94.2592 0-170.65984 76.40064-170.65984 170.67008C170.67008 435.56864 247.07072 512 341.32992 512a169.6768 169.6768 0 0 0 94.04416-28.39552L805.0688 853.32992l48.26112-48.26112-369.72544-369.72544z m-142.27456 8.3968c-56.53504 0-102.4-45.86496-102.4-102.4 0-56.56576 45.86496-102.4 102.4-102.4 56.56576 0 102.4 45.83424 102.4 102.4 0 56.5248-45.83424 102.4-102.4 102.4z" p-id="1993" fill="#ffffff"></path></svg>